<?xml version="1.0" encoding="UTF-8"?>
<svg width="512" height="512" viewBox="0 0 512 512" fill="none" xmlns="http://www.w3.org/2000/svg">
  <!-- Background gradient circle -->
  <circle cx="256" cy="256" r="256" fill="url(#paint0_linear)"/>
  
  <!-- "A" letter stylized -->
  <path d="M173 368V354L188 350L244 144H268L324 350L339 354V368H267V354L282 350L276 325H236L230 350L245 354V368H173Z" fill="white"/>
  <path d="M256 283L242 243H270L256 283Z" fill="url(#paint1_linear)"/>
  
  <!-- Stylized Greek pattern element -->
  <path d="M256 112C176.5 112 112 176.5 112 256C112 335.5 176.5 400 256 400C335.5 400 400 335.5 400 256C400 176.5 335.5 112 256 112ZM256 380C187.5 380 132 324.5 132 256C132 187.5 187.5 132 256 132C324.5 132 380 187.5 380 256C380 324.5 324.5 380 256 380Z" fill="white" fill-opacity="0.2"/>
  
  <!-- Gradient definitions -->
  <defs>
    <linearGradient id="paint0_linear" x1="0" y1="0" x2="512" y2="512" gradientUnits="userSpaceOnUse">
      <stop offset="0" stop-color="#8B5CF6"/>
      <stop offset="0.5" stop-color="#7C3AED"/>
      <stop offset="1" stop-color="#6D28D9"/>
    </linearGradient>
    <linearGradient id="paint1_linear" x1="242" y1="243" x2="270" y2="283" gradientUnits="userSpaceOnUse">
      <stop stop-color="#A78BFA"/>
      <stop offset="1" stop-color="#8B5CF6"/>
    </linearGradient>
  </defs>
</svg> 