<?xml version="1.0" encoding="UTF-8"?>
<svg width="512" height="512" viewBox="0 0 512 512" fill="none" xmlns="http://www.w3.org/2000/svg">
  <!-- Background pattern -->
  <rect width="512" height="512" rx="256" fill="#10B981"/>
  <circle cx="256" cy="256" r="200" fill="#059669"/>
  <path d="M156 156L356 356M156 356L356 156" stroke="#34D399" stroke-width="24" stroke-linecap="round"/>
  
  <!-- Minimal face -->
  <circle cx="200" cy="200" r="16" fill="white"/>
  <circle cx="312" cy="200" r="16" fill="white"/>
  
  <!-- Cool vibes elements -->
  <path d="M196 280C196 280 226 320 256 320C286 320 316 280 316 280" stroke="white" stroke-width="12" stroke-linecap="round"/>
  
  <!-- Modern headphones -->
  <path d="M136 200C136 200 136 150 136 140C136 70 186 60 256 60C326 60 376 70 376 140C376 150 376 200 376 200" stroke="white" stroke-width="12" stroke-linecap="round"/>
  <rect x="116" y="180" width="40" height="80" rx="20" fill="white"/>
  <rect x="356" y="180" width="40" height="80" rx="20" fill="white"/>
</svg> 